{
    "accessors": [
        {
            "bufferView": 2,
            "byteOffset": 0,
            "componentType": 5123,
            "count": 516,
            "max": [
                367
            ],
            "min": [
                0
            ],
            "name": "accessor_buffer_boatMesh_0",
            "type": "SCALAR"
        },
        {
            "bufferView": 3,
            "byteOffset": 0,
            "componentType": 5123,
            "count": 36,
            "max": [
                343
            ],
            "min": [
                6
            ],
            "name": "accessor_buffer_boatMesh_1",
            "type": "SCALAR"
        },
        {
            "bufferView": 0,
            "byteOffset": 0,
            "componentType": 5126,
            "count": 368,
            "max": [
                2.0,
                9.214212417602539,
                3.999999761581421
            ],
            "min": [
                -2.0,
                -1.6493674516677856,
                -3.999999761581421
            ],
            "name": "accessor_buffer_boatMesh_POSITION_0",
            "type": "VEC3"
        },
        {
            "bufferView": 1,
            "byteOffset": 0,
            "componentType": 5126,
            "count": 368,
            "max": [
                1.0,
                1.0,
                1.0
            ],
            "min": [
                -1.0,
                -1.0,
                -1.0
            ],
            "name": "accessor_buffer_boatMesh_NORMAL_0",
            "type": "VEC3"
        }
    ],
    "asset": {
        "copyright": "",
        "generator": "blendergltf v1.2.0",
        "version": "2.0"
    },
    "bufferViews": [
        {
            "buffer": 0,
            "byteLength": 4416,
            "byteOffset": 0,
            "byteStride": 12,
            "name": "bufferView_buffer_boatMesh_POSITION_0",
            "target": 34962
        },
        {
            "buffer": 0,
            "byteLength": 4416,
            "byteOffset": 4416,
            "byteStride": 12,
            "name": "bufferView_buffer_boatMesh_NORMAL_0",
            "target": 34962
        },
        {
            "buffer": 0,
            "byteLength": 1036,
            "byteOffset": 8832,
            "name": "bufferView_buffer_boatMesh_0",
            "target": 34963
        },
        {
            "buffer": 0,
            "byteLength": 76,
            "byteOffset": 9868,
            "name": "bufferView_buffer_boatMesh_1",
            "target": 34963
        }
    ],
    "buffers": [
        {
            "byteLength": 9944,
            "name": "buffer_boat",
            "uri": "buffer_boat.bin"
        }
    ],
    "materials": [
        {
            "alphaMode": "OPAQUE",
            "doubleSided": false,
            "emissiveFactor": [
                0.0,
                0.0,
                0.0
            ],
            "name": "boat",
            "pbrMetallicRoughness": {
                "baseColorFactor": [
                    0.09896799921989441,
                    0.03475790470838547,
                    0.015708399936556816,
                    1.0
                ],
                "metallicFactor": 0.0,
                "roughnessFactor": 1.0
            }
        },
        {
            "alphaMode": "OPAQUE",
            "doubleSided": false,
            "emissiveFactor": [
                0.0,
                0.0,
                0.0
            ],
            "name": "sail",
            "pbrMetallicRoughness": {
                "baseColorFactor": [
                    0.64000004529953,
                    0.64000004529953,
                    0.64000004529953,
                    1.0
                ],
                "metallicFactor": 0.0,
                "roughnessFactor": 1.0
            }
        }
    ],
    "meshes": [
        {
            "name": "boatMesh",
            "primitives": [
                {
                    "attributes": {
                        "NORMAL": 3,
                        "POSITION": 2
                    },
                    "indices": 0,
                    "material": 0,
                    "mode": 4
                },
                {
                    "attributes": {
                        "NORMAL": 3,
                        "POSITION": 2
                    },
                    "indices": 1,
                    "material": 1,
                    "mode": 4
                }
            ]
        }
    ],
    "nodes": [
        {
            "mesh": 0,
            "name": "boat",
            "rotation": [
                0.0,
                -0.7071068286895752,
                0.0,
                0.7071067094802856
            ],
            "scale": [
                1.0,
                1.0,
                1.0
            ],
            "translation": [
                0.0,
                0.0,
                0.0
            ]
        }
    ],
    "scene": 0,
    "scenes": [
        {
            "extras": {
                "background_color": [
                    0.05087608844041824,
                    0.05087608844041824,
                    0.05087608844041824
                ],
                "frames_per_second": 24
            },
            "name": "Scene",
            "nodes": [
                0
            ]
        }
    ]
}
